# xmcd CD database file
#
# Track frame offsets:
#	150
#	19009
#	37018
#	59703
#	77210
#	95037
#	114564
#	147490
#	162756
#	189136
#	206028
#	221375
#	241874
#
# Disc length: 3411 seconds
#
# Revision: 1
# Processed by: cddbd v1.5.2PL0 Copyright (c) Steve Scherf et al.
# Submitted via: CDex 1.51
#
DISCID=b70d510d
DTITLE=Dixieland Express - Live At Hermann's
DYEAR=2003
DGENRE=Jazz
TTITLE0=Weary Blues
TTITLE1=Shake It and Break It
TTITLE2=The Thrift Store On The Corner
TTITLE3=Roll On, Mississippi, Roll On
TTITLE4=Jazz Me Blues
TTITLE5=Oh, Baby
TTITLE6=Just a Closer Walk With Thee
TTITLE7=Medley: Waiting For The Robert E. Lee/Alabama Jubilee
TTITLE8=Dans Les Rues d'Antibes
TTITLE9=Mister Jelly Lord
TTITLE10=Scotland The Brave
TTITLE11=Petite Fleur
TTITLE12=Dippermouth Blues
EXTD=YEAR: 2003
EXTT0=
EXTT1=
EXTT2=
EXTT3=
EXTT4=
EXTT5=
EXTT6=
EXTT7=
EXTT8=
EXTT9=
EXTT10=
EXTT11=
EXTT12=
PLAYORDER=
